HIERARCHY
ROOT Hips
{
	OFFSET 0.00000 0.00000 0.00000
	CHANNELS 6 Xposition Yposition Zposition Yrotation Zrotation Xrotation 
	JOINT Lumbar
	{
		OFFSET 0 0 0
		CHANNELS 3 Zrotation Xrotation Yrotation
		JOINT Neck
		{
			OFFSET 0.00 0.2701 0.00
			CHANNELS 3 Zrotation Xrotation Yrotation
			End Site
			{
				OFFSET 0.00 0.1379 0.00
			}
		}
		JOINT RightShoulder
		{
			OFFSET 0.0119 0.2289 0.1181
			CHANNELS 3 Zrotation Xrotation Yrotation
			JOINT RightElbow
			{
				OFFSET 0.00 -0.1475 0.00
				CHANNELS 2 Zrotation Yrotation
				JOINT RightWrist
				{
					OFFSET 0.00 -0.1605 0.00
					CHANNELS 2 Zrotation Xrotation
					End Site
					{
						OFFSET 0.0040 -0.1068 0.0006
					}
				}
			}
		}
		JOINT LeftShoulder
		{
			OFFSET 0.0119 0.2289 -0.1181
			CHANNELS 3 Zrotation Xrotation Yrotation
			JOINT LeftElbow
			{
				OFFSET 0.00 -0.1475 0.00
				CHANNELS 2 Zrotation Yrotation
				JOINT LeftWrist
				{
					OFFSET 0.00 -0.1605 0.00
					CHANNELS 2 Zrotation Xrotation
					End Site
					{
						OFFSET 0.0040 -0.1068 -0.0006
					}
				}
			}
		}
	}
	JOINT RightHip
	{
		OFFSET 0.0316 -0.0424 0.0458
		CHANNELS 3 Zrotation Xrotation Yrotation
		JOINT RightKnee
		{
			OFFSET 0.00 -0.2438 0.00
			CHANNELS 1 Zrotation
			JOINT RightAnkle
			{
				OFFSET 0.00 -0.2449 0.00
				CHANNELS 3 Zrotation Xrotation Yrotation
				End Site
				{
					OFFSET 0.1237 -0.0542 0.0051
				}
			}
		}
	}
	JOINT LeftHip
	{
		OFFSET 0.0316 -0.0424 -0.0458
		CHANNELS 3 Zrotation Xrotation Yrotation
		JOINT LeftKnee
		{
			OFFSET 0.00 -0.2438 0.00
			CHANNELS 1 Zrotation
			JOINT LeftAnkle
			{
				OFFSET 0.00 -0.2449 0.00
				CHANNELS 3 Zrotation Xrotation Yrotation
				End Site
				{
					OFFSET 0.1237 -0.0542 -0.0051
				}
			}
		}
	}
}
MOTION
Frames: 31
Frame Time: 0.02
0.0699 0.01661 -0.05545 17.52292 -28.45069 -13.75263 42.88698 -3.76443 12.44025 -5.2902 6.24114 -2.1134 136.12942 -64.52744 55.62811 5.79566 86.97419 11.30608 -1.43305 -7.75966 27.34085 5.87372 44.55729 -95.13789 4.49267 -3.82972 43.5248 -3.53755 -10.44598 -25.83096 -7.24177 -2.13231 -3.29891 51.7048 14.52728 -0.98403 -32.66241 -6.89518 1.71755 3.08946
0.06988 0.0166 -0.05722 17.26777 -27.38525 -13.39783 41.91141 -4.46066 12.77252 -5.47898 6.34564 -2.11353 136.34191 -64.76343 55.62853 5.78781 87.44974 11.36926 -1.32256 -8.67167 27.8775 6.21787 44.01167 -93.48886 4.37898 -3.14356 42.82854 -3.86565 -9.39797 -26.4851 -7.25016 -2.12614 -3.29719 50.38046 14.35814 -0.15362 -32.85134 -6.87846 1.72287 3.09099
0.06983 0.01648 -0.05897 17.12729 -26.11204 -12.78557 40.70237 -5.29149 13.09449 -5.63709 6.39769 -2.11369 136.24447 -64.8959 55.62874 5.78955 87.90374 11.54884 -1.23229 -9.52412 28.40703 6.37123 43.11867 -91.92491 4.33001 -2.37745 41.92076 -4.3527 -8.08807 -27.16652 -7.24878 -2.13857 -3.30408 48.75766 14.0845 1.12132 -32.99914 -6.86821 1.69341 3.0763
0.06979 0.0164 -0.06073 16.92943 -24.96804 -12.3117 39.63502 -6.04031 13.40913 -5.80977 6.47347 -2.11383 136.27942 -65.07087 55.62877 5.78976 88.35016 11.66937 -1.13538 -10.38506 28.93039 6.59294 42.36729 -90.37065 4.26114 -1.66902 41.13393 -4.75998 -6.9503 -27.81568 -7.25219 -2.13959 -3.30553 47.31741 13.86336 2.15277 -33.17064 -6.85443 1.68199 3.07007
0.06976 0.01634 -0.06247 16.75009 -23.6758 -11.74892 38.41592 -6.87687 13.77193 -5.9803 6.54988 -2.11399 136.32668 -65.2691 55.62903 5.78848 88.85595 11.81881 -1.03146 -11.33071 29.49723 6.88981 41.676 -88.59898 4.15203 -0.8667 40.24419 -5.19793 -5.58903 -28.55222 -7.25409 -2.15248 -3.31315 45.67874 13.62151 3.3514 -33.32245 -6.84292 1.66226 3.05979
0.0697 0.01622 -0.06425 16.56121 -22.64293 -11.309 37.45755 -7.56266 14.03353 -6.14765 6.61248 -2.11412 136.28296 -65.39334 55.6291 5.78877 89.23856 11.93414 -0.94436 -12.08364 29.96903 6.98809 40.78308 -87.30379 4.1414 -0.24199 39.51723 -5.61012 -4.6287 -29.11162 -7.25687 -2.14548 -3.31019 44.38147 13.3975 4.31137 -33.50399 -6.82837 1.65108 3.05385
0.06959 0.01596 -0.06618 16.31357 -22.38447 -11.27952 37.28224 -7.80003 14.01073 -6.31579 6.64954 -2.11415 136.07292 -65.33089 55.62884 5.78855 89.28305 11.93177 -0.91329 -12.31535 30.1964 6.55499 39.38501 -87.32437 4.39565 -0.13261 39.29905 -5.91318 -4.86608 -29.1782 -7.26388 -2.07678 -3.27453 44.11446 13.25204 4.49159 -33.78929 -6.80296 1.67301 3.06437
0.06946 0.01565 -0.06815 16.05383 -22.39321 -11.38099 37.37656 -7.88086 13.88798 -6.48127 6.67454 -2.11416 135.78401 -65.19827 55.62851 5.78853 89.20671 11.88969 -0.89582 -12.35493 30.32502 5.93397 37.80373 -87.81977 4.74501 -0.20439 39.25047 -6.18482 -5.51137 -29.06457 -7.27221 -1.9879 -3.22821 44.19901 13.12742 4.41937 -34.10368 -6.77445 1.70443 3.07966
0.06933 0.01537 -0.07009 15.80277 -22.27491 -11.41702 37.34379 -8.03289 13.81628 -6.64668 6.70518 -2.11418 135.52844 -65.10214 55.62824 5.78857 89.18997 11.86225 -0.86163 -12.48392 30.48778 5.41861 36.32803 -88.08634 5.04553 -0.19026 39.11898 -6.47046 -5.9527 -29.03099 -7.28031 -1.90977 -3.18769 44.11317 12.99079 4.4717 -34.39713 -6.74792 1.73073 3.09237
0.06922 0.01505 -0.07206 15.54156 -22.17255 -11.46899 37.32202 -8.18955 13.72087 -6.81679 6.73326 -2.11419 135.27126 -64.9831 55.6278 5.78854 89.15306 11.85361 -0.87078 -12.60207 30.69554 4.81169 34.74286 -88.41083 5.37304 -0.18815 39.00438 -6.7629 -6.46303 -29.00614 -7.28649 -1.82562 -3.14345 44.06114 12.86123 4.49842 -34.72186 -6.71917 1.75928 3.10624
0.06907 0.0148 -0.07399 15.29794 -22.10372 -11.52235 37.34447 -8.29741 13.65073 -6.97642 6.76456 -2.11421 135.00399 -64.89638 55.62772 5.78849 89.12903 11.79445 -0.795 -12.69797 30.78638 4.35256 33.3505 -88.72617 5.6648 -0.20539 38.8981 -7.03151 -6.93029 -28.92004 -7.29712 -1.74899 -3.10433 44.02683 12.72325 4.51214 -34.98871 -6.69424 1.78582 3.11905
0.06885 0.01472 -0.07582 15.09868 -22.05859 -11.54762 37.42398 -8.31009 13.67925 -7.1117 6.80751 -2.11422 134.72061 -64.91703 55.62872 5.78822 89.17736 11.60863 -0.46075 -12.7784 30.57715 4.35473 32.50492 -88.90618 5.84611 -0.23078 38.77058 -7.24224 -7.17631 -28.70765 -7.3198 -1.69789 -3.08194 43.95069 12.55772 4.5555 -35.09043 -6.68045 1.80457 3.12783
0.06859 0.0147 -0.07761 14.91836 -22.03976 -11.57103 37.5397 -8.27816 13.73583 -7.23592 6.85438 -2.11424 134.43278 -64.97289 55.63008 5.78787 89.24163 11.37239 -0.04424 -12.84319 30.25412 4.51147 31.86691 -89.06168 5.9863 -0.27067 38.64725 -7.4291 -7.36621 -28.43996 -7.34693 -1.65508 -3.06509 43.88275 12.38346 4.59171 -35.13279 -6.6706 1.82111 3.13543
0.06835 0.01465 -0.07941 14.73343 -22.01221 -11.59656 37.63943 -8.26514 13.77678 -7.36285 6.89987 -2.11425 134.15368 -65.01258 55.63124 5.78757 89.29407 11.15632 0.32112 -12.91651 29.98391 4.59399 31.15592 -89.22069 6.13667 -0.30413 38.52473 -7.62614 -7.58537 -28.19819 -7.37206 -1.60839 -3.04563 43.81559 12.21314 4.62628 -35.20136 -6.659 1.83881 3.14363
0.06811 0.01461 -0.08126 14.53106 -21.97998 -11.62119 37.74647 -8.2525 13.82663 -7.49962 6.94332 -2.11427 133.84361 -65.05073 55.63258 5.78722 89.36172 10.94963 0.74389 -12.97848 29.70488 4.68766 30.34917 -89.41779 6.32381 -0.34046 38.39617 -7.82561 -7.80469 -27.94662 -7.39726 -1.56114 -3.02603 43.7411 12.04332 4.67234 -35.27411 -6.64714 1.85624 3.15176
0.06785 0.01457 -0.083 14.36992 -21.96057 -11.64545 37.8434 -8.23051 13.86563 -7.61308 6.99198 -2.11429 133.59769 -65.10104 55.63362 5.78695 89.40291 10.71302 1.06706 -13.06115 29.41937 4.79598 29.79235 -89.53701 6.42648 -0.37531 38.27947 -8.01397 -8.00263 -27.70491 -7.42324 -1.51771 -3.00837 43.67977 11.87048 4.69682 -35.32375 -6.6368 1.87345 3.15964
0.06755 0.01453 -0.08449 14.31566 -21.96683 -11.66991 37.90241 -8.19415 13.87079 -7.66678 7.05521 -2.1143 133.53415 -65.17959 55.63383 5.7869 89.36894 10.3973 1.09283 -13.22036 29.13671 4.9195 29.88735 -89.32184 6.27725 -0.3705 38.1901 -8.18419 -8.17487 -27.50279 -7.45123 -1.47911 -2.99309 43.64717 11.68843 4.65709 -35.32318 -6.62952 1.89178 3.16773
0.06722 0.01449 -0.08587 14.30275 -21.9844 -11.69326 37.94883 -8.1506 13.86402 -7.69702 7.12334 -2.11431 133.53508 -65.26891 55.63373 5.78693 89.30813 10.05535 1.01596 -13.39884 28.85338 5.05106 30.22533 -89.0448 6.04834 -0.36728 38.11257 -8.34303 -8.32212 -27.31369 -7.47969 -1.4448 -2.97991 43.62678 11.50416 4.59841 -35.30128 -6.62367 1.90968 3.17548
0.06691 0.01445 -0.08729 14.27243 -21.99762 -11.71602 38.00049 -8.11081 13.86128 -7.73687 7.18865 -2.11433 133.50404 -65.35148 55.63373 5.78693 89.25896 9.731 0.98774 -13.55947 28.57535 5.17168 30.44491 -88.88265 5.87545 -0.38534 38.03161 -8.50268 -8.46556 -27.1202 -7.50729 -1.4111 -2.96693 43.60275 11.32276 4.55364 -35.28976 -6.61729 1.92698 3.18299
0.0666 0.01441 -0.08876 14.23675 -22.00857 -11.74354 38.05581 -8.06737 13.86534 -7.78101 7.25689 -2.11434 133.48362 -65.44303 55.63389 5.78691 89.21234 9.37962 0.95419 -13.75849 28.2717 5.32833 30.70542 -88.37551 5.62149 -0.31729 37.94246 -8.67948 -8.67018 -26.91789 -7.53774 -1.36705 -2.94934 43.57133 11.13307 4.4856 -35.27384 -6.61055 1.94764 3.19215
0.06626 0.01436 -0.0901 14.22201 -22.02659 -11.76073 38.09975 -8.03034 13.85205 -7.81049 7.31975 -2.11435 133.45701 -65.51801 55.63366 5.78695 89.15417 9.08052 0.90597 -13.88154 28.02339 5.40984 30.93554 -88.54501 5.51304 -0.42104 37.87339 -8.81868 -8.74356 -26.73819 -7.56237 -1.34525 -2.94168 43.55783 10.96039 4.46231 -35.26209 -6.60485 1.96114 3.19777
0.06588 0.01427 -0.09111 14.25341 -22.06036 -11.75061 38.11693 -8.01389 13.79355 -7.8077 7.37009 -2.11436 133.39305 -65.54417 55.63233 5.78716 89.06799 8.91919 0.84484 -13.79756 27.92317 5.28155 31.02328 -90.83817 5.86919 -1.06614 37.85433 -8.85258 -8.44767 -26.61532 -7.57034 -1.38572 -2.96178 43.59219 10.83374 4.56179 -35.27315 -6.60171 1.9558 3.19398
0.06548 0.01416 -0.09198 14.30471 -22.10083 -11.7299 38.12255 -8.00414 13.71785 -7.7906 7.41421 -2.11437 133.32145 -65.55316 55.63065 5.78743 88.97158 8.81395 0.77168 -13.6353 27.88004 5.07672 31.07106 -93.77293 6.36713 -1.87242 37.85562 -8.84993 -8.02319 -26.51586 -7.57254 -1.4481 -2.99163 43.64373 10.72446 4.70782 -35.28827 -6.59955 1.94315 3.18658
0.06508 0.01406 -0.09291 14.34773 -22.13875 -11.71343 38.13225 -7.9909 13.65011 -7.77842 7.45883 -2.11438 133.25639 -65.57013 55.62922 5.78765 88.88153 8.69198 0.70187 -13.50392 27.81471 4.90631 31.13517 -96.25245 6.77131 -2.55939 37.84903 -8.86695 -7.66634 -26.40711 -7.57769 -1.49911 -3.01638 43.68655 10.6084 4.83646 -35.29792 -6.59689 1.93331 3.18063
0.06469 0.01396 -0.09387 14.38873 -22.17516 -11.69949 38.14662 -7.97946 13.58161 -7.77191 7.51334 -2.11438 133.18086 -65.5868 55.62739 5.78794 88.78324 8.53254 0.63716 -13.39248 27.73399 4.73755 31.21471 -99.40739 7.29443 -3.43682 37.83657 -8.8707 -7.26986 -26.29163 -7.58143 -1.55605 -3.04394 43.73404 10.48812 4.94944 -35.32225 -6.59449 1.92553 3.17546
0.06428 0.01384 -0.09474 14.43846 -22.21594 -11.67758 38.14851 -7.9657 13.51046 -7.75074 7.54583 -2.11439 133.1242 -65.59979 55.6263 5.78812 88.70012 8.46425 0.56066 -13.22137 27.69827 4.54735 31.25058 -101.32546 7.60708 -3.96094 37.84168 -8.89347 -6.92562 -26.19739 -7.58679 -1.60603 -3.06806 43.77526 10.3801 5.10519 -35.31703 -6.59178 1.91182 3.16785
0.06378 0.01369 -0.09541 14.5042 -22.2699 -11.63906 38.12109 -7.94552 13.43782 -7.6906 7.51814 -2.1144 133.12357 -65.6077 55.62739 5.78795 88.66057 8.63927 0.45173 -12.89844 27.77839 4.31397 31.16445 -99.52672 7.28255 -3.42546 37.88611 -8.97741 -6.75821 -26.14142 -7.59772 -1.62944 -3.07935 43.80052 10.30832 5.37637 -35.23185 -6.58794 1.88268 3.15393
0.06324 0.01352 -0.09599 14.57834 -22.32817 -11.5931 38.08178 -7.92204 13.36229 -7.61668 7.46875 -2.1144 133.1415 -65.61234 55.62921 5.78769 88.63685 8.90343 0.33237 -12.51931 27.90073 4.06211 31.03672 -96.48817 6.74579 -2.53704 37.94939 -9.08102 -6.64766 -26.10933 -7.61064 -1.64555 -3.08708 43.81888 10.24753 5.6866 -35.11669 -6.58376 1.84802 3.13777
0.06272 0.01335 -0.09662 14.65069 -22.38167 -11.54776 38.04561 -7.89968 13.28777 -7.55047 7.42972 -2.11441 133.14926 -65.61781 55.63063 5.78747 88.60666 9.12319 0.22016 -12.16976 28.00021 3.82046 30.93398 -94.11251 6.32046 -1.83958 38.0053 -9.177 -6.51062 -26.07507 -7.62276 -1.66617 -3.097 43.8353 10.17681 5.97443 -35.01328 -6.57975 1.81639 3.12288
0.06219 0.01318 -0.09724 14.71563 -22.44429 -11.51067 38.01591 -7.88114 13.21623 -7.47762 7.38795 -2.11441 133.16408 -65.62523 55.63231 5.7872 88.57334 9.36055 0.09734 -11.80007 28.11748 3.56852 30.80381 -91.34013 5.83638 -1.01924 38.0522 -9.26969 -6.37223 -26.00242 -7.63389 -1.68208 -3.10459 43.86925 10.12564 6.28706 -34.91676 -6.5757 1.78212 3.10674
0.06169 0.01303 -0.09786 14.7972 -22.49262 -11.45858 37.97343 -7.85125 13.13511 -7.41554 7.34732 -2.11442 133.16876 -65.6283 55.63364 5.7871 88.55008 9.58263 -0.00578 -11.46046 28.20661 3.33459 30.72204 -89.09029 5.42292 -0.36827 38.12794 -9.36998 -6.25131 -26.01829 -7.64805 -1.70634 -3.11636 43.87047 10.03849 6.55228 -34.80015 -6.57163 1.75235 3.0928
